<svg version="1.2" xmlns="http://www.w3.org/2000/svg" viewBox="0 0 1538 1184" width="1538" height="1184">
	<title>yes_premia_brochure_pdf-1-pdf-svg</title>

	<style>
		.s0 { fill: #eb1f48 } 
	</style>
	<g id="Clip-Path: Page 1" clip-path="url(#cp1)">
		<g id="Page 1">
			<path id="Path 3" class="s0" d="m492.9 890.4c55.7 0 80.1-73.1 34.8-107.9q-6.9-6.9-17.4-17.4c-219.1-177.4-285.2-135.6-504.3-59.1-7 3.5-7 13.9 0 17.4 66 13.9 128.7 55.6 212.1 142.6l250.5 24.4q10.4 0 24.3 0zm1029.7-887.1l-841.8 841.8c-59.1 62.7-146.1 94-233.1 87l-201.7-17.4 208.7 201.8c111.3 104.3 288.7 83.5 372.2-41.8l709.6-1061c3.5-6.9-7-17.4-13.9-10.4z"/>
		</g>
	</g>
</svg>